<svg xmlns="http://www.w3.org/2000/svg" width="285" height="346" fill="none"><g clip-path="url(#a)"><path fill="url(#b)" d="M27.019 89.967C33.595 63.07 47.563 42.95 66.07 30.555l-3.038-1.214 19.02-7.135c.806-.301 1.61-.636 2.416-.904l.403-.15c28.889-10.146 64.632-5.305 100.113 16.913 69.542 43.57 111.601 137.451 93.887 209.684-7.879 32.155-26.27 54.577-50.373 65.76l.034.005-.168.046a82.136 82.136 0 0 1-10.634 4.064l-19.556 7.471-.031-3.771c-23.876 1.88-50.651-5.005-77.237-21.674C51.364 256.08 9.339 162.204 27.019 89.967Z"/><path fill="url(#c)" d="M5.146 98.185c-17.679 72.237 24.346 166.114 93.888 209.684C168.576 351.438 239.32 328.204 257 255.967c17.68-72.237-24.346-166.114-93.887-209.683C93.57 2.714 22.826 25.948 5.146 98.185Z"/><path fill="url(#d)" d="M21.05 108.967c-15.205 62.144 20.959 142.929 80.793 180.401 59.834 37.473 120.678 17.483 135.916-44.656 15.205-62.144-20.958-142.929-80.793-180.401C97.132 26.838 36.255 46.824 21.05 108.967Z"/><path fill="url(#e)" d="M21.05 108.967c-15.205 62.144 20.959 142.929 80.793 180.401 59.834 37.473 120.678 17.483 135.916-44.656 15.205-62.144-20.958-142.929-80.793-180.401C97.132 26.838 36.255 46.824 21.05 108.967Z"/><path fill="#E85B6B" d="M193 95c-13.5-17.5-44-38.5-65-44.5L122 171l71-76Z" opacity=".4"/><path fill="#BCBCBC" d="M113.454 285.466c-59.835-37.506-95.998-118.257-80.76-180.43 6.968-28.406 23.464-47.99 45.059-57.297-27.236 6.698-48.53 27.89-56.703 61.228-15.205 62.144 20.959 142.929 80.793 180.401 32.471 20.362 65.24 23.726 90.858 12.674-23.575 5.789-51.512.787-79.247-16.576Z"/><path fill="url(#f)" stroke="url(#g)" stroke-miterlimit="10" stroke-width="3.398" d="m172.595 111.202-57.591 63.725c-.633.731-.523 1.899.258 2.681.78.747 1.924.796 2.558.099l56.438-64.827c.633-.731.828-1.621.217-2.211-.678-.598-1.58.199-1.88.533Z"/><path fill="url(#h)" stroke="url(#i)" stroke-miterlimit="10" stroke-width="3.398" d="m126.725 110.662-4.137 61.666c-.061.84.619 1.676 1.462 1.855.842.179 1.578-.369 1.605-1.214l2.891-61.898c.06-.84-.249-1.628-.923-1.75-.707-.094-.867.971-.898 1.341Z"/><path fill="url(#j)" d="m129.222 70.467-.055-6.761c-.017-2.073 1.42-3.241 3.243-2.594 1.788.643 3.287 2.877 3.304 4.95l.056 6.76c.017 2.073-1.421 3.241-3.243 2.594-1.823-.647-3.288-2.876-3.305-4.949Zm5.45 221.289c1.788.643 3.259-.521 3.242-2.594l-.055-6.761c-.017-2.073-1.516-4.306-3.305-4.949-1.788-.643-3.259.521-3.242 2.594l.055 6.761c.017 2.072 1.482 4.302 3.305 4.949Zm41.74-186.975c1.561 1.597 3.581 1.728 4.444.246l2.888-4.813c.896-1.477.337-3.96-1.258-5.595-1.561-1.597-3.581-1.728-4.443-.246l-2.888 4.813c-.863 1.481-.304 3.998 1.257 5.595ZM84.527 258.206c1.561 1.597 3.581 1.728 4.444.246l2.888-4.812c.896-1.478.338-3.961-1.257-5.596-1.561-1.597-3.581-1.728-4.444-.246l-2.888 4.813c-.863 1.515-.304 3.998 1.257 5.595Zm124.318-104.864c.926 2.124 2.922 3.473 4.466 2.998l5.035-1.543c1.544-.476 2.065-2.58 1.14-4.704-.926-2.124-2.923-3.473-4.467-2.998l-5.068 1.539c-1.511.48-2.032 2.584-1.106 4.708ZM47.528 202.766c.926 2.124 2.923 3.473 4.467 2.998l5.035-1.544c1.544-.475 2.065-2.579 1.139-4.703-.926-2.124-2.923-3.473-4.467-2.998l-5.035 1.544c-1.544.475-2.065 2.579-1.139 4.703Zm173.544 5.335c.017 2.072 1.516 4.306 3.304 4.949l5.873 2.13c1.789.643 3.26-.521 3.243-2.593-.017-2.073-1.516-4.307-3.305-4.949l-5.872-2.131c-1.823-.647-3.26.521-3.243 2.594ZM33.556 140.277c.017 2.072 1.516 4.306 3.304 4.949l5.873 2.131c1.789.642 3.26-.522 3.243-2.594-.017-2.073-1.516-4.306-3.305-4.949l-5.873-2.131c-1.788-.643-3.26.487-3.242 2.594Zm176.286 114.098c-.896 1.477-.338 3.96 1.257 5.596l5.124 5.222c1.561 1.597 3.582 1.727 4.444.246.897-1.477.338-3.961-1.257-5.596l-5.124-5.223c-1.561-1.631-3.547-1.722-4.444-.245ZM46.38 87.459c-.896 1.477-.337 3.96 1.258 5.596l5.124 5.222c1.56 1.597 3.58 1.727 4.444.246.896-1.477.337-3.96-1.258-5.596l-5.124-5.223c-1.56-1.63-3.547-1.722-4.444-.245ZM178.15 279.73c-1.544.475-2.065 2.579-1.139 4.703l2.984 6.943c.926 2.124 2.923 3.473 4.467 2.998 1.544-.476 2.065-2.579 1.139-4.703l-2.985-6.944c-.892-2.12-2.888-3.468-4.466-2.997ZM82.552 58.485c-1.544.476-2.065 2.58-1.139 4.703l2.985 6.944c.925 2.124 2.922 3.473 4.466 2.997 1.544-.475 2.065-2.579 1.14-4.703l-2.985-6.943c-.927-2.158-2.923-3.473-4.467-2.998Z"/><path fill="url(#k)" d="M156.933 64.34C106.941 33.018 56.269 41.857 32.066 81.84c9.275 59.971 54.175 122.832 118.159 157.457 27.581 14.933 55.339 22.728 81.025 24.039 2.645-5.693 4.849-11.885 6.476-18.595 15.205-62.143-20.959-142.928-80.793-180.4Z"/></g><defs><linearGradient id="b" x1="23.201" x2="282.42" y1="152.56" y2="150.433" gradientUnits="userSpaceOnUse"><stop stop-color="#E02D7B"/><stop offset=".21" stop-color="#E02F78"/><stop offset=".39" stop-color="#E2376D"/><stop offset=".559" stop-color="#E5435B"/><stop offset=".721" stop-color="#E85443"/><stop offset=".877" stop-color="#ED6A23"/><stop offset="1" stop-color="#F17F04"/></linearGradient><linearGradient id="c" x1="242.925" x2="20.691" y1="135.108" y2="240.435" gradientUnits="userSpaceOnUse"><stop stop-color="#E02D7B"/><stop offset=".21" stop-color="#E02F78"/><stop offset=".39" stop-color="#E2376D"/><stop offset=".559" stop-color="#E5435B"/><stop offset=".721" stop-color="#E85443"/><stop offset=".877" stop-color="#ED6A23"/><stop offset="1" stop-color="#F17F04"/></linearGradient><linearGradient id="d" x1="53.068" x2="205.686" y1="244.332" y2="109.378" gradientUnits="userSpaceOnUse"><stop stop-color="#7AA9F2"/><stop offset=".203" stop-color="#90BBF6"/><stop offset=".52" stop-color="#ACD3FB"/><stop offset=".797" stop-color="#BEE2FE"/><stop offset="1" stop-color="#C4E7FF"/></linearGradient><linearGradient id="e" x1="53.068" x2="205.686" y1="244.332" y2="109.378" gradientUnits="userSpaceOnUse"><stop offset="0" stop-color="#B8B8B8"/><stop offset=".174" stop-color="#CACACA"/><stop offset=".503" stop-color="#E6E6E6"/><stop offset=".789" stop-color="#F8F8F8"/><stop offset="1" stop-color="#FEFEFE"/></linearGradient><linearGradient id="f" x1="179.305" x2="111.522" y1="144.337" y2="153.513" gradientUnits="userSpaceOnUse"><stop offset="0" stop-color="#231F20"/><stop offset=".398" stop-color="#2C292A"/><stop offset="1" stop-color="#404041"/></linearGradient><linearGradient id="g" x1="115.071" x2="174.788" y1="138.356" y2="141.824" gradientUnits="userSpaceOnUse"><stop offset="0" stop-color="#231F20"/><stop offset=".398" stop-color="#2C292A"/><stop offset="1" stop-color="#404041"/></linearGradient><linearGradient id="h" x1="110.319" x2="141.42" y1="124.243" y2="159.753" gradientUnits="userSpaceOnUse"><stop offset="0" stop-color="#231F20"/><stop offset=".398" stop-color="#2C292A"/><stop offset="1" stop-color="#404041"/></linearGradient><linearGradient id="i" x1="121.069" x2="130.078" y1="141.182" y2="141.146" gradientUnits="userSpaceOnUse"><stop offset="0" stop-color="#231F20"/><stop offset=".398" stop-color="#2C292A"/><stop offset="1" stop-color="#404041"/></linearGradient><linearGradient id="j" x1="33.759" x2="233.054" y1="163.293" y2="161.658" gradientUnits="userSpaceOnUse"><stop stop-color="#992053"/><stop offset=".178" stop-color="#B02753"/><stop offset=".544" stop-color="#DB3354"/><stop offset=".83" stop-color="#F53A54"/><stop offset="1" stop-color="#FF3D54"/></linearGradient><linearGradient id="k" x1="61.18" x2="226.867" y1="232.471" y2="85.96" gradientUnits="userSpaceOnUse"><stop stop-color="#fff"/><stop offset=".045" stop-color="#fff" stop-opacity=".955"/><stop offset="1" stop-color="#fff" stop-opacity="0"/></linearGradient><clipPath id="a"><path fill="#fff" d="m0 0 281.484 37.058 2.534 308.91L2.534 308.909z"/></clipPath></defs></svg>