<svg xmlns="http://www.w3.org/2000/svg" width="115" height="191" fill="none"><path fill="url(#a)" d="M41.145 49.41c0-2.545.328-4.927.82-6.98-10.675-2.874-18.559 3.778-18.559 17.164 0 15.932 11.169 35.23 24.965 43.197 11.58 6.652 21.27 3.202 24.063-7.474-2.053-.574-4.189-1.478-6.406-2.71-13.715-7.966-24.883-27.265-24.883-43.197Z"/><path fill="url(#b)" d="M66.027 6.049c-12.236-7.063-23.405-7.72-31.946-3.12h-.082c-.74.41-1.478.902-2.217 1.395l-11.58 7.063c7.966-2.628 17.657-1.314 28.168 4.763 26.69 15.44 48.371 55.433 48.371 89.35 0 33.917-48.37 84.67-48.37 84.67l17.656-10.184s48.371-50.834 48.371-84.669c.082-33.835-21.599-73.829-48.37-89.268Z"/><path fill="url(#c)" d="M0 49.657c0 33.917 48.37 140.595 48.37 140.595s48.372-50.834 48.372-84.669c0-33.917-21.681-73.911-48.371-89.35-10.512-6.078-20.203-7.392-28.169-4.764C7.966 15.493 0 29.126 0 49.657Zm48.37 53.134c-13.796-7.966-24.883-27.265-24.883-43.197 0-13.304 7.884-20.038 18.56-17.164 2.053.575 4.189 1.478 6.406 2.71 13.797 7.966 24.965 27.265 24.965 43.197a30.15 30.15 0 0 1-.82 6.98c-2.957 10.677-12.648 14.126-24.227 7.474Z"/><defs><linearGradient id="a" x1="-16.149" x2="231.088" y1="91.072" y2="25.669" gradientUnits="userSpaceOnUse"><stop stop-color="#E02D7B"/><stop offset=".319" stop-color="#E6506F"/><stop offset=".771" stop-color="#EE7C5F"/><stop offset="1" stop-color="#F18D59"/></linearGradient><linearGradient id="b" x1="-46.385" x2="297.293" y1="127.963" y2="4.302" gradientUnits="userSpaceOnUse"><stop stop-color="#E02D7B"/><stop offset=".319" stop-color="#E6506F"/><stop offset=".771" stop-color="#EE7C5F"/><stop offset="1" stop-color="#F18D59"/></linearGradient><linearGradient id="c" x1="-100.564" x2="109.819" y1="154.354" y2="70.843" gradientUnits="userSpaceOnUse"><stop stop-color="#E02D7B"/><stop offset=".319" stop-color="#E6506F"/><stop offset=".771" stop-color="#EE7C5F"/><stop offset="1" stop-color="#F18D59"/></linearGradient></defs></svg>